<svg width="24" height="25" viewBox="0 0 24 25" fill="none" xmlns="http://www.w3.org/2000/svg">
<path opacity="0.5" fill-rule="evenodd" clip-rule="evenodd" d="M5 8.12225C5 7.3266 5.31607 6.56354 5.87868 6.00093C6.44129 5.43832 7.20435 5.12225 8 5.12225H18C18.1857 5.12225 18.3678 5.17397 18.5257 5.2716C18.6837 5.36924 18.8114 5.50893 18.8944 5.67504C18.9775 5.84115 19.0126 6.0271 18.996 6.21206C18.9793 6.39702 18.9114 6.57368 18.8 6.72225L16.25 10.1223L18.8 13.5223C18.9114 13.6708 18.9793 13.8475 18.996 14.0324C19.0126 14.2174 18.9775 14.4034 18.8944 14.5695C18.8114 14.7356 18.6837 14.8753 18.5257 14.9729C18.3678 15.0705 18.1857 15.1223 18 15.1223H8C7.73478 15.1223 7.48043 15.2276 7.29289 15.4151C7.10536 15.6027 7 15.857 7 16.1223V19.1223C7 19.3875 6.89464 19.6418 6.70711 19.8294C6.51957 20.0169 6.26522 20.1223 6 20.1223C5.73478 20.1223 5.48043 20.0169 5.29289 19.8294C5.10536 19.6418 5 19.3875 5 19.1223V8.12225Z" fill="#6E7C87"/>
</svg>
