<svg width="24" height="25" viewBox="0 0 24 25" fill="none" xmlns="http://www.w3.org/2000/svg">
<path fill-rule="evenodd" clip-rule="evenodd" d="M5 8.34546C5 7.54981 5.31607 6.78675 5.87868 6.22414C6.44129 5.66153 7.20435 5.34546 8 5.34546H18C18.1857 5.34546 18.3678 5.39717 18.5257 5.49481C18.6837 5.59244 18.8114 5.73214 18.8944 5.89825C18.9775 6.06435 19.0126 6.2503 18.996 6.43526C18.9793 6.62023 18.9114 6.79689 18.8 6.94546L16.25 10.3455L18.8 13.7455C18.9114 13.894 18.9793 14.0707 18.996 14.2557C19.0126 14.4406 18.9775 14.6266 18.8944 14.7927C18.8114 14.9588 18.6837 15.0985 18.5257 15.1961C18.3678 15.2937 18.1857 15.3455 18 15.3455H8C7.73478 15.3455 7.48043 15.4508 7.29289 15.6384C7.10536 15.8259 7 16.0802 7 16.3455V19.3455C7 19.6107 6.89464 19.865 6.70711 20.0526C6.51957 20.2401 6.26522 20.3455 6 20.3455C5.73478 20.3455 5.48043 20.2401 5.29289 20.0526C5.10536 19.865 5 19.6107 5 19.3455V8.34546Z" fill="#F76659"/>
</svg>
