<svg width="15" height="17" viewBox="0 0 15 17" fill="none" xmlns="http://www.w3.org/2000/svg">
<path opacity="0.5" fill-rule="evenodd" clip-rule="evenodd" d="M0.411891 4.10569C0.37025 3.31113 0.645952 2.53257 1.17835 1.94129C1.71074 1.35001 2.45621 0.994435 3.25077 0.952794L13.2371 0.429435C13.4225 0.419715 13.607 0.461832 13.7699 0.551065C13.9328 0.640297 14.0676 0.773121 14.1592 0.934653C14.2508 1.09618 14.2957 1.28004 14.2887 1.46562C14.2817 1.6512 14.2232 1.83118 14.1197 1.98537L11.7511 5.51417L14.4756 8.77605C14.5946 8.91859 14.6717 9.09146 14.698 9.27529C14.7243 9.45913 14.6989 9.64667 14.6247 9.81689C14.5505 9.98712 14.4303 10.1333 14.2776 10.2391C14.125 10.3448 13.9459 10.406 13.7604 10.4157L3.77413 10.9391C3.50928 10.953 3.26079 11.0715 3.08332 11.2686C2.90586 11.4657 2.81396 11.7252 2.82784 11.9901L2.98485 14.9859C2.99873 15.2508 2.90683 15.5103 2.72936 15.7074C2.5519 15.9045 2.30341 16.023 2.03855 16.0369C1.7737 16.0508 1.51418 15.9589 1.31709 15.7814C1.11999 15.604 1.00147 15.3555 0.987586 15.0906L0.411891 4.10569Z" fill="#6E7C87"/>
</svg>
