<svg width="14" height="16" viewBox="0 0 14 16" fill="none" xmlns="http://www.w3.org/2000/svg">
<path fill-rule="evenodd" clip-rule="evenodd" d="M0 3.34546C0 2.54981 0.316071 1.78675 0.87868 1.22414C1.44129 0.66153 2.20435 0.345459 3 0.345459H13C13.1857 0.345459 13.3678 0.397174 13.5257 0.494808C13.6837 0.592443 13.8114 0.73214 13.8944 0.898245C13.9775 1.06435 14.0126 1.2503 13.996 1.43526C13.9793 1.62023 13.9114 1.79689 13.8 1.94546L11.25 5.34546L13.8 8.74546C13.9114 8.89403 13.9793 9.07069 13.996 9.25565C14.0126 9.44061 13.9775 9.62657 13.8944 9.79267C13.8114 9.95878 13.6837 10.0985 13.5257 10.1961C13.3678 10.2937 13.1857 10.3455 13 10.3455H3C2.73478 10.3455 2.48043 10.4508 2.29289 10.6384C2.10536 10.8259 2 11.0802 2 11.3455V14.3455C2 14.6107 1.89464 14.865 1.70711 15.0526C1.51957 15.2401 1.26522 15.3455 1 15.3455C0.734784 15.3455 0.48043 15.2401 0.292893 15.0526C0.105357 14.865 0 14.6107 0 14.3455V3.34546Z" fill="#F76659"/>
</svg>
